<svg xmlns:xlink="http://www.w3.org/1999/xlink" xmlns="http://www.w3.org/2000/svg" id="Layer_2" viewBox="0 0 378 378" width="378"  height="378" >
    <path d="M189 23.1c44.3 0 86 17.3 117.3 48.6 31.3 31.3 48.6 73 48.6 117.3 0 44.3-17.3 86-48.6 117.3 -31.3 31.3-73 48.6-117.3 48.6s-86-17.3-117.3-48.6C40.4 275 23.1 233.3 23.1 189c0-44.3 17.3-86 48.6-117.3C103 40.4 144.7 23.1 189 23.1M189 0C84.6 0 0 84.6 0 189c0 104.4 84.6 189 189 189s189-84.6 189-189C378 84.6 293.4 0 189 0L189 0z" fill="#FFFFFF"></path>
    <polygon points="192.2 256.6 95.3 159.7 111.6 143.4 192.2 223.9 272.7 143.4 289 159.7 " fill="#FFFFFF"></polygon>
</svg>