<svg id="Layer_1" data-name="Layer 1" xmlns="http://www.w3.org/2000/svg" viewBox="0 0 311.65 22.28"><defs><style>.cls-1{fill:#fff;}</style></defs><path class="cls-1" d="M0,3.48V.25H15.62V3.48H9.52V22H6.1V3.48Z"/><path class="cls-1" d="M32.85,22V.25h3.43V22Z"/><path class="cls-1" d="M53.76,3.48V.25H69.38V3.48h-6.1V22H59.86V3.48Z"/><path class="cls-1" d="M87.36.25h3.42V14.34c0,3,1.52,4.7,4.42,4.7s4.42-1.71,4.42-4.7V.25H103V14.19a8,8,0,0,1-2.21,6,8.54,8.54,0,0,1-11.3,0,7.94,7.94,0,0,1-2.17-5.94Z"/><path class="cls-1" d="M200.23.25h3.42V18.79h9.4V22H200.23Z"/><path class="cls-1" d="M230.81.25h12.91V3.48h-9.49V8.84h7.66v3.23h-7.66v6.72H244V22H230.81Z"/><path class="cls-1" d="M262.45,22V.25h3.42V22Z"/><path class="cls-1" d="M297.23.25h3.42V22H297L288.05,6.41V22h-3.42V.25h3.67l8.93,15.68Z"/><polygon class="cls-1" points="173.7 9.98 170.55 9.98 170.55 0.27 167.13 0.27 167.13 22.03 170.55 22.03 170.55 11.36 180.82 22.03 185.21 22.03 173.7 9.98 173.7 9.98"/><path class="cls-1" d="M182.08,3.78a2.73,2.73,0,1,1-2.72-2.73A2.72,2.72,0,0,1,182.08,3.78Z"/><path class="cls-1" d="M128.33,9c-1.84-.87-3.3-2-3.3-3.54a2.23,2.23,0,0,1,2.27-2.37c1.31,0,2.4.81,3.24,2.4l2.77-1.84a6.49,6.49,0,0,0-6-3.67,5.64,5.64,0,0,0-5.69,5.72c0,6.73,9.27,5.79,9.27,10.05A3.17,3.17,0,0,1,127.55,19c-1.69,0-3-1-3.8-2.88h-3.3l-.09.05a7.21,7.21,0,0,0,7.19,6.07,6.83,6.83,0,0,0,4.89-1.84,6.36,6.36,0,0,0,1.93-4.79C134.4,11.73,130.94,10.17,128.33,9Z"/><path class="cls-1" d="M305.69.75h-1.15V.34h2.77V.75h-1.15V3.9h-.47ZM308,.34h.74l1.12,2.83L310.93.34h.72V3.9h-.47V.78h0L309.93,3.9h-.27L308.43.78h0V3.9H308Z"/></svg>